<svg xmlns="http://www.w3.org/2000/svg" xmlns:xlink="http://www.w3.org/1999/xlink" viewBox="0 0 960 560"><path fill="#00afb2" d="M103.313 334.51V140.018h206.645V261.58H151.935v-24.312h133.713v-72.932H127.624V334.51zM699.595 1.297l-220.36 219.018-79.01-79.012H363.77l97.235 97.252-97.234 97.243h36.454l79.012-79.004 202.12 199.225h36.47l-220.36-217.465L736.057 1.297z"/><path fill="#00afb2" d="M745.128 334.51V164.337h-97.243v-24.32H866.68v24.32H769.44V334.51z"/><path d="M24.32 24.31H934.76V434.47H24.32V24.31zM0 458.788h959.073V.01H0v458.777z" fill="#00afb2"/><path d="M882.817 240.6v-19.94l5.38 19.94h4.577l5.405-19.94v19.94h4.824v-25.012h-7.907l-4.577 17.223-4.55-17.222h-7.908v25.01h4.755zm-15.293 0v-20.674h7.514v-4.338h-20.306v4.338h7.72V240.6h5.072z" fill="#00afb2"/><defs><path id="a" d="M0 0h959.064v560H0z"/></defs><clipPath id="b"><use xlink:href="#a" overflow="visible"/></clipPath><path d="M921.512 543.445c-7.028 0-11.99-5.14-11.99-12.296 0-7.217 4.962-12.425 11.99-12.425 6.96 0 11.92 5.21 11.92 12.424 0 7.155-4.96 12.295-11.92 12.295m16.805-42.396h-4.884v20.62c-2.45-4.695-7.028-7.385-12.928-7.385-9.35 0-15.866 6.823-15.866 16.737 0 9.854 6.514 16.813 15.924 16.813 5.9 0 10.418-2.698 12.868-7.335v7.08h4.884v-46.53zm-53.813 13.294c-6.03.06-10.477 2.442-12.8 7.455v-7.268h-4.884v33.046h4.884v-17.744c.564-6.276 4.577-10.546 11.1-10.605 5.842 0 9.35 3.45 9.35 9.28v19.07h4.885v-20.384c0-7.967-4.63-12.852-12.536-12.852m-44.54 29.23c-4.645 0-7.59-2.383-7.59-6.03 0-3.638 2.885-5.337 8.41-5.337h10.298v3.962c-1.255 4.577-5.525 7.403-11.118 7.403m11.178 4.005h4.782l-.068-21.817c-.06-7.095-4.586-11.416-12.75-11.416-5.652 0-9.23 1.622-13.49 4.45l2.065 3.577c3.45-2.39 6.84-3.773 10.487-3.773 5.832 0 8.846 2.895 8.846 7.728v1.947H840.15c-7.778.06-12.346 3.69-12.346 9.46 0 5.714 4.38 10.103 11.22 10.103 5.277 0 9.478-1.76 12.117-5.328v5.07zm-37.4-33.046h-4.885v33.046h4.884v-17.556c.565-6.532 4.894-10.853 11.862-10.734v-4.944c-5.585.06-9.666 2.69-11.86 7.514v-7.326zm-44.097 12.85h13.244c7.146 0 11.288 2.827 11.288 7.592 0 5.02-4.14 7.847-11.29 7.847h-13.243v-15.437zm0-18.878h13.244c5.89 0 9.35 2.51 9.35 6.968 0 4.577-3.46 7.156-9.35 7.156h-13.245v-14.124zm-5.012-4.825v43.898h18.82c9.914 0 15.797-4.45 15.797-11.912 0-6.03-3.69-10.16-10.025-11.1 5.14-1.068 8.086-4.766 8.086-9.915 0-6.9-5.327-10.972-14.174-10.972h-18.503zM740.98 514.53h-5.013l-10.477 27.282-10.973-27.282h-5.14l13.67 32.807-1.383 3.073c-1.315 3.074-3.45 4.637-6.02 4.637-1.63 0-3.134-.504-4.637-1.563l-2.066 4.073c2.008 1.622 4.202 2.442 6.96 2.442 4.39 0 7.84-2.63 9.905-7.71l15.174-37.76zm-60.03 14.423c.76-6.276 5.277-10.358 11.553-10.358 6.456 0 10.725 4.022 11.04 10.358H680.95zm11.553-14.55c-9.606 0-16.37 6.83-16.37 16.684 0 9.845 6.704 16.676 16.43 16.676 5.525 0 10.16-1.998 13.295-5.508l-2.69-2.895c-2.58 2.707-6.148 4.15-10.23 4.15-6.404 0-11.11-4.082-11.99-10.546h26.976c.504-11.228-4.756-18.623-15.42-18.563m-25.285-13.355h-4.885v46.537h4.884V501.05zm-17.13 13.482h-4.825v33.046h4.825v-33.046zm-2.443-12.86c-1.81 0-3.194 1.443-3.194 3.38 0 1.948 1.383 3.382 3.194 3.382 1.82 0 3.194-1.435 3.194-3.38 0-1.94-1.374-3.382-3.193-3.382m-22.765 45.906l14.738-43.9h-5.21l-11.92 38.077-12.04-38.076-5.01.06-11.922 38.015-12.04-38.076h-5.397l14.68 43.898h5.14l11.98-37.008 11.853 37.008h5.15zm-79.73-15.925h-19.69l9.786-22.27 9.905 22.27zm2.136 4.824l4.893 11.1h5.457l-19.63-43.898h-5.21l-19.69 43.898h5.336l4.884-11.1h23.96z" clip-path="url(#b)" fill="#00afb2"/></svg>