<svg xmlns="http://www.w3.org/2000/svg" viewBox="52 39.889 715.111 715.111"><path d="M409.63 87.89c169.302-.013 307.5 136.238 309.46 305.98 1.975 170.95-135.01 311.134-305.96 313.11-1.21.013-2.44.02-3.647.02-169.304 0-307.5-136.24-309.46-305.98C98.045 230.068 235.028 89.885 405.98 87.91c1.21-.014 2.442-.02 3.65-.02m.022-48h-.026c-1.387 0-2.806.007-4.2.023-48.245.557-94.964 10.558-138.857 29.724-42.374 18.502-80.307 44.716-112.747 77.915s-57.77 71.727-75.29 114.516c-18.147 44.324-27.066 91.26-26.51 139.508.554 47.902 10.42 94.314 29.327 137.946 18.25 42.12 44.13 79.9 76.915 112.288 32.768 32.37 70.84 57.777 113.157 75.52C315.224 745.69 361.672 755 409.482 755c1.392 0 2.81-.01 4.204-.024 48.245-.558 94.964-10.56 138.856-29.725 42.372-18.502 80.306-44.716 112.746-77.915 32.44-33.198 57.77-71.73 75.29-114.517 18.146-44.322 27.064-91.26 26.51-139.504-.555-47.9-10.42-94.312-29.325-137.943-18.25-42.12-44.126-79.9-76.91-112.288-32.765-32.37-70.834-57.78-113.148-75.52-43.8-18.365-90.248-27.676-138.053-27.676z"/><path fill="#ffb53a" d="M482.75 396.444L644.926 252.95v286.986zM336.398 396.444L174.22 252.95v286.986zM193.493 227.087h432.63L409.782 415.72zM409.78 471.11l-51.74-45.126-164.547 143.474h432.63l-164.55-143.51z"/></svg>