<svg xmlns="http://www.w3.org/2000/svg" xmlns:xlink="http://www.w3.org/1999/xlink" version="1" width="500" height="500" viewBox="-0.811 -0.732 1708 1708"><defs><linearGradient id="d"><stop offset="0" stop-color="#b40000"/><stop offset="1" stop-color="#b40000" stop-opacity="0"/></linearGradient><linearGradient id="c"><stop offset="0" stop-color="#fff"/><stop offset="1" stop-color="#fff" stop-opacity="0"/></linearGradient><linearGradient id="b"><stop offset="0" stop-color="#dc0000"/><stop offset="1" stop-color="#ff3d01" stop-opacity=".588"/></linearGradient><linearGradient id="a"><stop offset="0" stop-color="#fff"/><stop offset="1" stop-color="#fff" stop-opacity="0"/></linearGradient><linearGradient x1="1531.175" y1="-710.262" x2="514.254" y2="1775.344" id="f" xlink:href="#a" gradientUnits="userSpaceOnUse" gradientTransform="translate(3.834 3.913) scale(.99546)"/><linearGradient x1="1026.728" y1="1147.711" x2="1703.623" y2="1703.622" id="e" xlink:href="#b" gradientUnits="userSpaceOnUse" gradientTransform="translate(3.834 3.913) scale(.99546)"/><linearGradient x1="1678.559" y1="288.912" x2="1678.559" y2="1417.624" id="g" xlink:href="#d" gradientUnits="userSpaceOnUse"/></defs><path d="M1417.545 1699.802c155.842 0 282.178-126.335 282.178-282.178M6.655 1417.624c0 155.843 126.336 282.178 282.178 282.178M288.833 1699.802h1128.712M6.655 288.912v1128.712M288.833 6.734C132.99 6.734 6.655 133.07 6.655 288.912M1417.545 6.734H288.833M1699.723 1417.624V288.912" fill="none" stroke="#e83131" stroke-width="10.248" stroke-linecap="round" stroke-linejoin="round" stroke-miterlimit="100" stroke-opacity=".667"/><path d="M1699.723 288.912A282.177 282.177 0 0 0 1417.546 6.735H288.833A282.177 282.177 0 0 0 6.655 288.912v1128.712A282.177 282.177 0 0 0 288.833 1699.8h1128.712a282.175 282.175 0 0 0 282.177-282.177V288.914z" fill="url(#e)" fill-rule="evenodd"/><path d="M1699.723 288.912c0-155.842-126.336-282.177-282.178-282.177H288.833C132.99 6.735 6.655 133.07 6.655 288.912v846.534c677.616 53.333 1329.166-272.44 1693.068-846.534z" fill="url(#f)" fill-rule="evenodd"/><path d="M1417.545 1671.584c140.958-10.423 257.016-114.875 282.178-253.96 0 155.843-126.336 282.178-282.178 282.178H288.833c-155.842 0-282.178-126.335-282.178-282.178 25.16 139.085 141.22 243.537 282.178 253.96h1128.712z" fill="#fff" fill-opacity=".258" fill-rule="evenodd"/><path d="M1417.545 1699.802c155.842 0 282.178-126.335 282.178-282.178M6.655 1417.624c0 155.843 126.336 282.178 282.178 282.178M288.833 1699.802h1128.712M6.655 288.912v1128.712M288.833 6.734C132.99 6.734 6.655 133.07 6.655 288.912M1417.545 6.734H288.833M1699.723 288.912c0-155.842-126.336-282.177-282.178-282.177M1699.723 1417.624V288.912" fill="none" stroke="#f55" stroke-width="14.932" stroke-linecap="round" stroke-linejoin="round" stroke-miterlimit="100"/><path d="M1417.545 1671.584c140.958-10.423 257.016-114.875 282.178-253.96 0 155.843-126.336 282.178-282.178 282.178H288.833c-155.842 0-282.178-126.335-282.178-282.178 25.16 139.085 141.22 243.537 282.178 253.96h1128.712z" fill="#fff" fill-opacity=".588" fill-rule="evenodd"/><path d="M1699.723 288.912c0-155.842-126.336-282.177-282.178-282.177" fill="none" stroke="#e83131" stroke-width="10.248" stroke-linecap="round" stroke-linejoin="round" stroke-miterlimit="100" stroke-opacity=".667"/><path d="M6.655 1417.624c23.376 0 42.327-252.67 42.327-564.357 0-311.684-18.95-564.355-42.327-564.355v1128.712z" fill="#b40000" fill-opacity=".588" fill-rule="evenodd"/><path d="M1699.723 1417.624c-23.376 0-42.328-252.67-42.328-564.357 0-311.684 18.95-564.355 42.328-564.355v1128.712z" fill="url(#g)" fill-rule="evenodd"/><path d="M1699.723 288.912c-47.012-120.23-154.562-206.27-282.178-225.74H288.833C161.217 82.64 53.667 168.68 6.655 288.91 6.655 133.07 132.99 6.735 288.833 6.735h1128.712c155.842 0 282.178 126.335 282.178 282.177z" fill="#fff" fill-opacity=".549" fill-rule="evenodd"/><g fill-rule="evenodd"><path d="M660.74 528.918C436.34 635.208 340.594 903.28 446.88 1127.678c106.287 224.397 374.36 320.144 598.76 213.856 224.396-106.288 320.143-374.36 213.856-598.758A449.575 449.575 0 0 0 1045.64 528.92c-43.02-20.378-61.38-71.774-41-114.797 20.377-43.023 71.772-61.38 114.797-41.002 310.442 147.045 442.903 517.91 295.858 828.353-147.043 310.442-517.908 442.903-828.352 295.86-310.44-147.043-442.9-517.91-295.858-828.352a621.966 621.966 0 0 1 295.86-295.86c43.023-20.377 94.418-2.02 114.796 41.003 20.38 43.023 2.02 94.42-41 114.795z" fill="#fff"/><path d="M766.994 666.51c0 47.604 38.59 86.194 86.197 86.194 47.605 0 86.197-38.59 86.197-86.195V235.53c0-47.604-38.592-86.196-86.196-86.196s-86.196 38.59-86.196 86.197v430.98z" fill="#fff"/><path d="M1171.092 1253.128c-175.572 175.572-460.232 175.572-635.804 0a434.19 434.19 0 0 0 317.9 138.454 434.187 434.187 0 0 0 317.904-138.454zM586.945 373.12A621.936 621.936 0 0 0 413.39 495.427 979.556 979.556 0 0 1 589.84 379.23a89.072 89.072 0 0 1 120.198 71.79 86.194 86.194 0 0 0-123.093-77.9zm409.398 77.9a89.07 89.07 0 0 1 120.198-71.79 979.565 979.565 0 0 1 176.45 116.196 621.936 621.936 0 0 0-173.553-122.305 86.197 86.197 0 0 0-123.094 77.9zm-229.35-215.49c3.6-44.936 41.116-79.57 86.198-79.57 45.082 0 82.6 34.633 86.197 79.57 0-47.604-38.592-86.196-86.196-86.196-47.605 0-86.196 38.59-86.196 86.197z" fill-opacity=".627"/></g></svg>