<?xml version="1.0" encoding="iso-8859-1"?>
<!-- Generator: Adobe Illustrator 19.1.1, SVG Export Plug-In . SVG Version: 6.00 Build 0)  -->
<svg version="1.1" id="Layer_1" xmlns="http://www.w3.org/2000/svg" xmlns:xlink="http://www.w3.org/1999/xlink" x="0px" y="0px"
	 viewBox="52 39.889 715.111 715.111" style="enable-background:new 52 39.889 715.111 715.111;" xml:space="preserve">
<g>
	<path d="M409.629,87.889c169.303-0.012,307.5,136.239,309.461,305.98c1.975,170.95-135.009,311.135-305.959,313.11
		c-1.21,0.014-2.441,0.021-3.648,0.021c-169.304,0-307.5-136.241-309.461-305.98C98.046,230.068,235.029,89.885,405.98,87.91
		C407.19,87.896,408.422,87.889,409.629,87.889 M409.652,39.889h-0.026c-1.387,0-2.806,0.008-4.201,0.024
		c-48.244,0.557-94.963,10.558-138.856,29.724c-42.373,18.502-80.306,44.716-112.746,77.915s-57.771,71.727-75.29,114.516
		c-18.147,44.324-27.066,91.261-26.509,139.508c0.553,47.902,10.42,94.314,29.326,137.946c18.251,42.121,44.129,79.9,76.915,112.288
		c32.768,32.37,70.839,57.777,113.157,75.519c43.802,18.361,90.251,27.673,138.061,27.673c1.391,0,2.809-0.009,4.203-0.024
		c48.245-0.558,94.964-10.559,138.856-29.725c42.372-18.502,80.306-44.716,112.746-77.915
		c32.439-33.198,57.771-71.729,75.29-114.517c18.146-44.323,27.064-91.261,26.509-139.505
		c-0.554-47.901-10.42-94.312-29.324-137.943c-18.25-42.121-44.126-79.899-76.909-112.288
		c-32.766-32.371-70.835-57.78-113.149-75.521C503.904,49.2,457.457,39.889,409.652,39.889L409.652,39.889z"/>
</g>
<polygon style="fill:#FFB53A;" points="482.749,396.444 644.927,252.951 644.927,539.936 "/>
<polygon style="fill:#FFB53A;" points="336.398,396.444 174.22,252.951 174.22,539.936 "/>
<polygon style="fill:#FFB53A;" points="193.493,227.087 626.122,227.087 409.782,415.721 "/>
<polygon style="fill:#FFB53A;" points="409.781,471.109 358.041,425.984 193.493,569.458 626.122,569.458 461.573,425.949 "/>
</svg>
